<svg width="50" height="40" viewBox="0 0 50 40" fill="none" xmlns="http://www.w3.org/2000/svg">
<path d="M46.6852 14.3884C41.5499 8.73586 39.6825 5.9096 34.2358 0.414095C33.769 -0.0569479 24.5876 -0.999035 29.2561 3.55438L31.1235 5.75259C34.2358 9.52093 37.1926 12.5042 40.1493 15.6445C28.3224 15.8015 16.4955 15.9585 4.66852 16.1155C2.48988 16.1155 0.311235 22.7101 0 23.6522C14.0056 23.6522 28.1668 23.3382 42.328 23.0242C40.1493 24.7513 37.815 26.4785 36.7257 27.2636C33.3021 29.9328 28.1668 33.7012 24.5876 36.0564C22.4089 37.6265 29.2561 41.0808 31.4347 39.6677C37.1926 35.7423 38.4375 34.4862 43.7285 29.9328C46.374 27.5776 49.3307 25.8504 49.7976 22.2391C50.5757 18.4708 49.0195 16.9006 46.6852 14.3884Z" fill="white"/>
</svg>
